<?xml version="1.0" standalone="no"?>
<!DOCTYPE svg PUBLIC "-//W3C//DTD SVG 20010904//EN"
 "http://www.w3.org/TR/2001/REC-SVG-20010904/DTD/svg10.dtd">
<svg version="1.0" xmlns="http://www.w3.org/2000/svg"
 width="600.000000pt" height="600.000000pt" viewBox="0 0 600.000000 600.000000"
 preserveAspectRatio="xMidYMid meet">
<metadata>
Created by potrace 1.14, written by Peter Selinger 2001-2017
</metadata>
<g transform="translate(0.000000,600.000000) scale(0.100000,-0.100000)"
fill="#000000" stroke="none">
<path d="M3155 5940 c-5 -8 -29 -10 -73 -7 -68 5 -131 -10 -162 -38 -9 -8 -42
-15 -85 -16 -43 -2 -77 -8 -87 -17 -10 -8 -25 -12 -34 -8 -9 4 -26 0 -38 -8
-12 -7 -42 -17 -66 -21 -25 -4 -54 -14 -65 -21 -11 -8 -28 -14 -39 -14 -11 0
-27 -6 -35 -14 -9 -7 -43 -23 -76 -35 -66 -24 -97 -37 -137 -57 -14 -8 -33
-14 -40 -14 -8 0 -23 -9 -32 -19 -10 -11 -39 -29 -66 -40 -27 -12 -52 -26 -55
-31 -4 -6 -23 -21 -43 -34 -81 -51 -322 -312 -322 -348 0 -6 -9 -21 -19 -32
-22 -24 -71 -118 -71 -137 0 -6 -12 -28 -27 -47 -25 -33 -33 -67 -34 -135 0
-17 -10 -40 -25 -55 -25 -26 -63 -118 -64 -155 0 -10 -13 -58 -30 -107 -16
-49 -30 -94 -30 -101 0 -13 -12 -41 -91 -204 -26 -55 -53 -118 -58 -140 -23
-94 -35 -133 -53 -187 -11 -31 -18 -63 -15 -70 2 -7 0 -23 -4 -35 -5 -13 -5
-23 0 -23 5 0 11 4 13 9 6 19 37 -17 38 -45 2 -47 -12 -117 -26 -139 -18 -25
-18 -56 0 -81 24 -32 -5 -119 -50 -149 -23 -15 -24 -18 -9 -29 16 -11 16 -15
3 -42 -10 -19 -13 -38 -7 -57 6 -22 3 -33 -12 -48 -26 -26 -59 -26 -52 1 4 13
0 20 -10 20 -8 0 -15 -6 -14 -12 1 -36 -5 -48 -23 -48 -11 0 -20 4 -20 10 0
18 -25 0 -46 -33 -23 -36 -44 -117 -44 -174 0 -42 36 -120 63 -134 10 -6 32
-9 50 -7 38 4 37 18 7 -197 -23 -163 -34 -507 -20 -585 5 -25 14 -94 20 -155
7 -60 18 -151 25 -200 13 -92 6 -236 -15 -313 -9 -35 -3 -129 10 -147 14 -20
19 -74 9 -110 -13 -46 -3 -110 20 -133 15 -15 18 -33 15 -127 -1 -60 -3 -121
-4 -135 -3 -43 26 -123 65 -180 21 -30 73 -127 116 -215 79 -162 116 -223 172
-282 l31 -33 968 0 967 0 88 53 c92 55 144 81 281 143 45 20 82 41 82 46 0 5
22 41 48 81 60 88 78 123 107 208 31 89 67 144 135 206 31 28 72 73 90 100 18
27 53 64 77 83 24 19 43 41 43 47 0 7 5 13 10 13 18 0 11 -26 -12 -48 -36 -33
-48 -50 -48 -67 0 -9 -7 -18 -16 -22 -8 -3 -13 -12 -10 -20 4 -9 -1 -17 -14
-20 -11 -3 -20 -13 -20 -22 0 -16 -27 -51 -89 -116 -35 -36 -51 -66 -51 -94 0
-12 -6 -21 -14 -21 -8 0 -17 -10 -21 -22 -3 -13 -10 -32 -15 -43 -5 -11 -16
-47 -25 -80 -31 -110 -47 -160 -67 -208 -18 -40 -24 -47 -49 -47 -15 0 -31 5
-34 10 -8 13 -25 3 -25 -16 0 -9 11 -14 30 -14 35 0 39 -16 12 -51 -10 -13
-26 -36 -35 -51 l-17 -28 94 0 c86 0 95 2 101 20 4 14 15 20 36 20 28 0 29 2
29 45 0 25 4 45 9 45 4 0 12 19 17 43 8 36 13 42 32 39 21 -3 29 8 15 22 -4 3
-8 15 -10 26 -2 15 3 20 22 20 14 0 25 4 25 9 0 6 13 17 28 27 16 9 33 29 39
45 6 16 20 32 30 36 22 9 37 20 73 56 16 15 33 27 39 27 6 0 15 9 21 20 6 11
18 20 28 20 13 0 14 2 3 9 -17 11 -6 17 46 26 46 7 83 0 83 -17 0 -5 9 -21 19
-35 11 -13 18 -30 15 -38 -3 -7 0 -16 6 -20 7 -5 8 -11 1 -19 -6 -7 -7 -26 -2
-48 5 -21 7 -39 5 -41 -6 -6 -12 -36 -14 -72 -6 -84 9 -101 29 -32 7 23 24 76
37 117 33 107 51 199 48 240 -1 19 -4 51 -5 70 -2 20 -12 42 -23 51 -23 19
-15 55 10 45 10 -4 29 6 52 29 20 19 42 35 49 35 6 0 15 10 18 22 9 25 -18 49
-83 74 -33 13 -62 16 -132 11 -101 -6 -144 -21 -97 -32 28 -8 40 -45 13 -45
-8 0 -21 -3 -29 -6 -11 -4 -16 5 -20 38 -4 35 0 46 16 61 l21 18 -23 107 c-58
277 -54 254 -37 287 8 16 18 44 22 60 4 17 13 39 20 50 7 11 17 40 24 65 6 25
15 54 20 65 47 106 110 460 110 614 0 32 1 33 28 26 48 -13 109 -8 136 11 43
30 76 115 76 193 0 42 7 85 20 119 23 61 46 204 55 352 3 58 13 129 21 158 12
43 14 92 8 259 l-7 206 -30 34 c-17 19 -41 39 -54 44 l-23 9 4 197 c3 109 7
205 10 213 3 8 8 62 10 120 2 58 10 129 16 158 9 41 9 69 1 115 -7 34 -13 85
-16 112 -4 52 -17 100 -42 148 -8 15 -12 31 -9 35 3 5 1 24 -3 43 -5 19 -12
46 -15 61 -4 15 -20 43 -36 61 -16 19 -34 53 -39 77 -6 28 -23 57 -49 84 -22
22 -58 69 -81 104 -24 35 -50 66 -59 70 -17 6 -96 85 -135 134 -12 15 -27 28
-34 28 -7 0 -22 14 -35 30 -12 17 -30 30 -39 30 -19 0 -54 38 -81 89 -10 17
-25 31 -36 31 -20 0 -54 28 -78 65 -9 14 -22 25 -28 25 -7 0 -30 16 -52 35
-21 19 -44 35 -51 35 -7 0 -29 11 -49 25 -20 14 -44 25 -53 25 -9 0 -27 9 -41
20 -14 11 -32 20 -41 20 -9 0 -60 23 -115 51 -54 28 -112 53 -129 55 -16 1
-30 4 -30 5 0 9 -180 16 -191 7 -11 -8 -38 -5 -195 18 -23 4 -39 1 -44 -6z
m-725 -254 c-21 -19 -77 -36 -114 -35 -26 0 -28 2 -11 9 11 5 35 9 53 9 17 1
32 5 32 10 0 9 18 17 45 20 5 0 3 -5 -5 -13z m-335 -126 c3 -5 1 -10 -4 -10
-6 0 -11 5 -11 10 0 6 2 10 4 10 3 0 8 -4 11 -10z m716 -391 c36 -10 80 -19
97 -19 19 0 36 -7 44 -18 7 -10 25 -22 39 -25 14 -4 31 -18 37 -32 14 -30 28
-32 42 -5 6 11 20 20 30 20 11 0 28 -9 37 -20 20 -23 54 -26 83 -7 15 9 23 9
28 1 61 -95 61 -95 182 -93 8 0 47 3 86 5 50 4 81 1 107 -9 20 -9 50 -13 66
-11 29 5 31 3 31 -25 0 -27 4 -31 26 -31 16 0 23 4 18 11 -5 8 -1 8 14 0 11
-6 27 -8 35 -5 8 3 18 1 22 -5 3 -6 19 -11 34 -11 16 0 34 -7 41 -15 9 -11 16
-13 24 -5 16 16 37 12 62 -15 25 -27 31 -50 21 -77 -4 -10 -9 -25 -12 -33 -2
-8 -13 -15 -24 -15 -16 0 -18 -4 -11 -35 4 -19 4 -35 -1 -35 -4 0 -25 -11 -45
-25 -22 -15 -46 -23 -60 -21 -19 4 -23 0 -26 -22 -3 -23 -8 -27 -38 -28 -19
-1 -46 -6 -60 -12 -19 -7 -28 -6 -38 4 -7 8 -11 18 -8 23 3 5 -1 12 -10 15
-13 5 -15 1 -11 -16 2 -13 8 -31 12 -40 5 -14 2 -18 -14 -18 -57 0 -111 -25
-137 -62 -28 -40 -51 -48 -61 -23 -3 9 -13 15 -22 13 -9 -1 -21 1 -28 5 -6 4
-14 3 -18 -3 -3 -5 -2 -10 4 -10 5 0 16 -7 25 -15 10 -11 41 -17 98 -19 46 -2
91 -7 101 -11 13 -6 20 -2 23 11 4 14 14 19 36 18 42 -1 50 -24 9 -24 -17 0
-31 -4 -31 -10 0 -5 5 -10 11 -10 5 0 7 -5 4 -10 -4 -6 -10 -8 -15 -5 -12 8
-52 -14 -65 -34 -14 -24 -17 -68 -5 -76 6 -4 10 6 10 24 0 40 15 39 34 -1 17
-34 15 -71 -4 -94 -7 -7 -9 -22 -5 -34 4 -11 2 -20 -4 -20 -6 0 -11 -7 -11
-16 0 -9 7 -14 18 -12 9 2 17 11 17 19 0 9 5 23 12 30 6 8 9 33 7 57 -4 45 6
52 39 28 20 -15 23 -30 5 -24 -11 4 -42 -61 -34 -69 8 -8 36 11 36 23 0 8 4
14 10 14 20 0 28 -38 24 -112 -4 -66 -2 -78 11 -78 8 0 15 -9 15 -20 0 -13 -7
-20 -19 -20 -11 0 -28 -3 -38 -7 -16 -6 -16 -5 -4 10 18 22 -2 22 -24 1 -13
-13 -14 -19 -4 -25 10 -6 8 -13 -5 -34 -16 -24 -16 -28 -1 -51 16 -25 38 -34
30 -11 -3 6 4 18 14 24 21 13 51 8 51 -8 0 -5 5 -9 10 -9 6 0 10 9 10 21 0 14
-5 19 -14 16 -10 -4 -13 -1 -9 9 6 17 5 17 38 0 14 -8 22 -17 17 -20 -7 -4 -5
-18 5 -37 18 -35 8 -51 -25 -43 -13 4 -22 14 -22 26 0 14 -5 18 -15 14 -8 -3
-19 2 -24 12 -10 16 -10 16 -11 0 0 -25 -28 -48 -60 -48 -16 0 -30 -6 -33 -12
-3 -9 -7 -8 -11 3 -6 13 -15 15 -52 8 -25 -5 -49 -11 -54 -14 -5 -3 -19 0 -31
7 -18 11 -22 11 -26 0 -6 -14 -56 -9 -114 13 -21 8 -41 10 -49 5 -8 -5 -18 -6
-23 -3 -17 10 -52 9 -59 -2 -5 -7 -14 -6 -28 3 -17 10 -25 10 -36 1 -18 -15
-94 -6 -105 13 -5 7 -26 13 -51 13 -37 0 -43 3 -40 20 2 17 1 17 -8 5 -9 -13
-11 -13 -20 0 -6 10 -10 11 -10 3 0 -7 -10 -13 -21 -13 -12 0 -27 -7 -34 -16
-14 -20 -55 -10 -55 12 0 8 5 12 10 9 11 -7 40 11 40 24 0 3 -11 6 -25 6 -14
0 -25 -5 -25 -12 0 -21 -17 -23 -38 -3 -22 20 -37 27 -28 12 3 -5 -4 -8 -16
-7 -11 1 -24 9 -30 18 -7 13 -24 17 -78 17 -45 0 -70 4 -70 11 0 6 7 9 15 5 8
-3 15 -1 15 4 0 6 -6 10 -14 10 -8 0 -21 6 -28 14 -22 22 -76 29 -109 16 -24
-11 -32 -10 -47 2 -9 9 -39 18 -67 22 -27 4 -70 9 -95 13 -25 3 -49 9 -55 13
-38 28 -138 40 -159 19 -16 -14 -56 -11 -56 5 0 8 -3 21 -6 30 -4 10 -1 16 8
16 8 0 21 11 28 25 10 19 21 25 47 25 38 0 46 13 57 92 4 29 3 49 -4 53 -20
12 -11 55 15 67 34 15 31 34 -6 47 -23 8 -30 15 -25 27 3 8 6 20 6 25 0 5 11
9 24 9 18 0 25 7 29 28 6 31 -2 82 -13 82 -13 0 -9 59 6 71 22 18 18 42 -4 30
-13 -7 -23 -6 -30 1 -9 9 -12 9 -12 0 0 -6 -7 -9 -15 -6 -11 5 -13 10 -5 19 8
10 8 15 -1 21 -6 4 -16 0 -21 -10 -14 -24 -31 -8 -24 23 5 17 4 21 -2 12 -8
-11 -11 -11 -18 0 -5 8 -9 17 -9 22 0 4 -4 8 -10 10 -5 1 -11 -10 -13 -26 -2
-15 -12 -32 -23 -37 -10 -6 -19 -17 -19 -25 0 -9 -6 -12 -16 -8 -11 4 -12 9
-5 16 19 19 13 54 -10 60 -30 8 -18 33 15 29 16 -2 29 3 32 13 7 16 54 21 54
5 0 -5 7 -10 15 -10 8 0 15 -3 15 -8 0 -4 15 -16 34 -26 19 -10 36 -27 39 -37
7 -26 21 -24 37 6 18 33 27 32 35 -6 6 -28 8 -29 24 -15 10 9 21 16 26 16 12
0 34 33 35 51 0 9 -7 19 -15 23 -8 3 -15 13 -15 23 0 13 -3 14 -12 5 -7 -7
-21 -12 -32 -12 -17 0 -18 -2 -6 -9 8 -6 17 -8 21 -5 4 2 10 0 14 -6 10 -16
-24 -24 -48 -12 -41 20 -67 21 -76 4 -15 -26 -26 -4 -14 26 6 15 14 36 18 47
6 18 5 18 -5 3 -13 -21 -41 -23 -58 -6 -17 17 -15 31 3 24 8 -3 15 -1 15 4 0
6 11 10 25 10 24 0 29 8 26 40 -1 10 6 7 19 -9 11 -13 23 -21 26 -18 6 6 -45
74 -52 70 -10 -7 -32 11 -28 22 9 22 -15 27 -28 5 -14 -22 -43 -27 -54 -8 -8
12 24 40 37 32 5 -3 9 3 9 13 0 10 13 33 29 50 16 18 31 37 33 44 5 15 80 40
93 30 5 -4 28 -8 51 -9 22 0 45 -2 50 -4 12 -4 124 21 146 33 27 14 42 11 56
-12 10 -16 16 -18 27 -9 9 8 15 8 20 0 3 -6 11 -8 16 -4 5 3 7 9 5 13 -10 15
11 29 59 38 61 12 119 7 206 -18z m-841 -326 c0 -7 -4 -13 -10 -13 -5 0 -10
12 -10 28 0 21 2 24 10 12 5 -8 10 -21 10 -27z m2123 -46 c-12 -20 -36 0 -39
33 l-4 35 24 -30 c13 -16 22 -34 19 -38z m-2166 1 c-3 -7 -5 -2 -5 12 0 14 2
19 5 13 2 -7 2 -19 0 -25z m2110 -65 c-3 -10 -5 -2 -5 17 0 19 2 27 5 18 2
-10 2 -26 0 -35z m-2063 -78 c3 -8 1 -15 -3 -15 -5 0 -11 7 -15 15 -3 8 -1 15
3 15 5 0 11 -7 15 -15z m-24 -31 c0 -8 -4 -14 -10 -14 -5 0 -10 9 -10 21 0 11
5 17 10 14 6 -3 10 -13 10 -21z m-95 6 c3 -5 -1 -10 -10 -10 -9 0 -13 5 -10
10 3 6 8 10 10 10 2 0 7 -4 10 -10z m175 -25 c0 -8 -4 -15 -9 -15 -13 0 -22
16 -14 24 11 11 23 6 23 -9z m-120 -47 c0 -4 -7 -8 -15 -8 -9 0 -12 6 -9 15 4
8 1 15 -5 15 -6 0 -11 5 -11 12 0 6 9 3 20 -7 11 -10 20 -22 20 -27z m2010 -2
c0 -11 -19 -15 -25 -6 -3 5 1 10 9 10 9 0 16 -2 16 -4z m32 -34 c-4 -13 -7
-12 -12 4 -4 10 -5 23 -2 28 7 13 21 -16 14 -32z m-1872 18 c0 -5 7 -10 15
-10 8 0 15 -7 15 -15 0 -8 -8 -15 -19 -15 -22 0 -45 25 -36 40 8 13 25 13 25
0z m1756 -27 c-10 -10 -19 5 -10 18 6 11 8 11 12 0 2 -7 1 -15 -2 -18z m-1871
-122 c-3 -6 -11 -11 -17 -11 -6 0 -6 6 2 15 14 17 26 13 15 -4z m72 1 c7 -4 9
-13 4 -21 -7 -10 -13 -11 -30 -2 -12 7 -19 16 -16 22 7 11 25 12 42 1z m1673
-82 c0 -16 -4 -30 -10 -30 -11 0 -14 43 -3 53 11 12 13 8 13 -23z m-1710 -4
c0 -2 -7 -6 -15 -10 -8 -3 -15 -1 -15 4 0 6 7 10 15 10 8 0 15 -2 15 -4z
m-378 -106 c-13 -14 -22 -18 -27 -11 -8 14 3 33 15 26 5 -3 12 0 15 6 4 5 9 8
12 5 3 -2 -4 -14 -15 -26z m458 10 c0 -5 -4 -10 -10 -10 -5 0 -10 5 -10 10 0
6 5 10 10 10 6 0 10 -4 10 -10z m1770 -4 c0 -8 -4 -18 -10 -21 -5 -3 -10 3
-10 14 0 12 5 21 10 21 6 0 10 -6 10 -14z m-1800 -25 c0 -12 -20 -25 -27 -18
-7 7 6 27 18 27 5 0 9 -4 9 -9z m1792 -41 c5 -32 -6 -41 -16 -14 -9 23 -7 44
3 44 5 0 11 -13 13 -30z m-2222 4 c0 -8 -10 -14 -25 -14 -15 0 -25 6 -25 14 0
8 10 14 25 14 15 0 25 -6 25 -14z m-85 -152 c0 -18 -20 -15 -23 4 -3 10 1 15
10 12 7 -3 13 -10 13 -16z m-66 -88 c-4 -61 -19 -56 -19 7 0 32 4 48 10 44 6
-4 10 -27 9 -51z m91 6 c0 -5 -5 -10 -11 -10 -5 0 -7 5 -4 10 3 6 8 10 11 10
2 0 4 -4 4 -10z m20 -50 c0 -5 -4 -10 -10 -10 -5 0 -10 5 -10 10 0 6 5 10 10
10 6 0 10 -4 10 -10z m2326 -20 c12 0 12 -4 -3 -24 -13 -17 -21 -21 -30 -14
-19 16 -17 52 3 44 9 -3 22 -6 30 -6z m-29 -76 c-9 -9 -28 6 -21 18 4 6 10 6
17 -1 6 -6 8 -13 4 -17z m-687 6 c0 -5 -7 -7 -15 -4 -8 4 -15 8 -15 10 0 2 7
4 15 4 8 0 15 -4 15 -10z m107 4 c-3 -3 -12 -4 -19 -1 -8 3 -5 6 6 6 11 1 17
-2 13 -5z m-1065 -150 c21 -13 -7 -25 -46 -19 -50 9 -58 13 -50 27 6 10 76 4
96 -8z m-474 -187 c23 -8 32 -17 32 -33 0 -13 -5 -26 -10 -29 -15 -9 -2 -25
19 -25 18 0 22 -24 7 -48 -4 -6 -2 -12 3 -12 6 0 20 -9 32 -21 11 -11 56 -36
99 -54 79 -34 80 -34 211 -30 139 4 280 13 315 20 16 4 23 -1 27 -16 4 -16 2
-19 -14 -14 -13 4 -19 2 -19 -9 0 -8 -8 -20 -17 -25 -17 -10 -17 -10 1 -11 12
0 16 -5 12 -15 -8 -21 21 -19 32 2 13 22 42 10 42 -18 0 -15 -5 -19 -15 -15
-20 7 -44 -39 -28 -55 13 -13 55 54 58 96 2 16 13 38 27 48 22 19 23 19 26 1
5 -26 22 -42 22 -21 0 9 8 25 18 35 9 10 24 31 32 46 8 16 23 31 33 34 9 2 17
13 17 23 0 10 5 21 10 24 6 3 10 15 10 25 0 10 9 21 20 25 11 3 19 9 17 13 -1
4 4 22 12 39 15 37 52 49 128 40 52 -6 93 -43 94 -86 0 -14 4 -35 9 -46 5 -13
3 -26 -7 -37 -18 -21 -9 -53 12 -44 8 3 15 1 15 -4 0 -6 -9 -10 -19 -10 -29 0
-51 -11 -51 -25 0 -7 11 -12 25 -12 13 0 22 3 19 8 -6 11 -1 11 20 3 13 -5 14
-9 5 -20 -6 -8 -9 -23 -6 -34 3 -12 -1 -24 -11 -29 -9 -5 -14 -13 -10 -17 4
-4 14 -1 22 6 25 20 40 6 41 -40 1 -24 -1 -38 -3 -32 -2 7 -10 12 -18 12 -8 0
-14 7 -14 16 0 8 -4 13 -9 9 -5 -3 -7 -21 -4 -41 4 -27 2 -35 -8 -34 -8 1 -22
2 -33 1 -16 -1 -16 -3 -5 -17 7 -8 21 -13 30 -11 10 3 18 2 17 -2 -3 -26 3
-30 29 -18 21 9 27 9 31 -1 2 -7 15 -18 29 -23 31 -12 25 -33 -10 -37 -22 -3
-27 1 -27 17 0 12 -5 21 -11 21 -6 0 -8 -9 -4 -22 12 -38 11 -42 -12 -46 -16
-2 -23 2 -23 12 0 21 -17 20 -29 -1 -9 -17 -11 -17 -25 2 -8 11 -18 17 -22 13
-4 -4 8 -21 26 -38 18 -16 26 -30 19 -30 -8 -1 -25 -10 -38 -21 -20 -16 -22
-23 -13 -43 13 -30 85 -36 101 -8 7 11 11 12 11 4 0 -21 -18 -35 -94 -70 -4
-3 -5 5 -1 17 4 15 2 21 -8 21 -9 0 -19 -15 -24 -37 -6 -28 -14 -39 -31 -41
-12 -2 -22 -7 -22 -12 0 -14 -32 -21 -46 -9 -7 6 -22 8 -34 4 -13 -4 -20 -2
-20 6 0 10 -3 10 -12 1 -18 -18 -27 -15 -21 8 4 15 0 20 -14 20 -10 0 -24 5
-30 11 -9 9 -69 20 -118 20 -11 0 -26 6 -35 12 -9 8 -52 14 -107 16 -85 3 -93
1 -93 -15 0 -16 -3 -15 -20 6 -23 29 -25 75 -5 110 8 14 14 34 15 45 0 11 8
25 19 32 24 15 44 70 28 75 -18 5 -107 1 -159 -7 -33 -5 -45 -11 -41 -21 8
-20 -22 -28 -67 -16 -22 5 -40 6 -40 2 0 -5 -10 -6 -22 -3 -19 4 -20 3 -8 -6
13 -10 13 -13 -3 -22 -14 -8 -16 -14 -6 -25 8 -10 8 -14 0 -14 -6 0 -11 4 -11
9 0 5 -7 11 -14 14 -10 4 -13 1 -9 -9 4 -10 -2 -14 -21 -14 -17 0 -26 -5 -26
-15 0 -12 -8 -14 -40 -9 -32 5 -40 4 -38 -7 2 -9 -5 -13 -16 -12 -11 1 -30 -3
-44 -8 -14 -5 -28 -6 -31 -1 -15 21 -73 53 -87 48 -12 -5 -14 -14 -8 -38 6
-30 5 -31 -10 -19 -9 8 -33 15 -53 16 -21 0 -39 7 -41 14 -3 9 1 12 10 9 7 -3
22 0 33 8 18 14 18 14 -1 14 -31 0 -71 41 -103 105 -25 52 -27 61 -13 66 10 3
12 8 5 12 -6 4 -16 0 -23 -8 -16 -19 -34 -19 -50 0 -16 20 4 47 28 38 15 -6
15 -5 3 10 -7 9 -11 28 -9 42 3 14 2 28 -3 31 -4 2 -6 11 -2 20 3 8 -2 20 -10
27 -14 10 -14 15 -2 31 7 10 18 15 24 11 6 -3 11 -1 11 6 0 7 3 9 7 6 11 -11
34 30 41 75 7 39 32 67 32 34 0 -26 19 -28 55 -6 39 24 39 24 24 51 -6 12 -8
27 -5 36 7 16 50 13 114 -10z m437 -52 l50 -15 -50 5 c-27 3 -54 10 -59 15
-14 14 -1 12 59 -5z m1475 -225 c11 -7 2 -10 -32 -10 -27 0 -48 5 -48 10 0 13
60 13 80 0z m-312 -90 c58 -30 103 -50 152 -66 69 -23 190 -78 190 -86 0 -5
-5 -8 -12 -8 -6 0 -3 -6 7 -14 16 -12 22 -12 41 1 19 12 24 12 37 -1 11 -11
17 -12 26 -3 8 8 18 7 40 -6 16 -9 40 -17 54 -17 13 0 30 -7 37 -15 7 -9 21
-13 31 -10 11 4 28 4 38 0 16 -5 19 -14 16 -49 -1 -24 -6 -49 -9 -55 -4 -6 -4
-16 0 -23 5 -8 11 -6 20 7 18 25 43 4 42 -36 -1 -32 -12 -46 -23 -29 -14 22
-35 10 -35 -21 0 -26 -3 -30 -22 -27 -13 2 -23 8 -23 15 0 20 -22 36 -40 29
-9 -3 -13 -10 -10 -16 3 -5 1 -10 -5 -10 -17 0 -42 -28 -35 -40 3 -5 -1 -10
-10 -10 -9 0 -14 4 -11 9 7 11 -40 32 -59 25 -8 -4 -15 -13 -15 -21 0 -10 -9
-13 -27 -11 -21 2 -29 10 -35 36 -7 26 -14 32 -36 34 -15 0 -31 2 -37 2 -21 3
-35 18 -35 36 0 13 -9 21 -25 25 -14 3 -36 7 -50 10 -14 3 -25 12 -25 20 0 8
-6 18 -14 22 -8 4 -16 15 -18 23 -2 8 -23 20 -48 25 -41 10 -46 14 -62 60 -10
28 -18 59 -18 70 0 11 -11 28 -24 38 -20 15 -24 26 -21 60 3 57 0 55 53 27z
m-2335 -24 c17 -13 16 -14 -2 -19 -11 -2 -24 0 -30 6 -26 26 0 37 32 13z m427
-20 c0 -11 -19 -15 -25 -6 -3 5 1 10 9 10 9 0 16 -2 16 -4z m1682 -78 c-9 -9
-15 -9 -24 0 -9 9 -7 12 12 12 19 0 21 -3 12 -12z m176 -15 c4 -28 -14 -30
-28 -4 -5 11 -22 22 -37 24 -16 3 -8 4 17 3 39 -1 45 -4 48 -23z m-1768 -89
c0 -8 -4 -12 -10 -9 -5 3 -10 10 -10 16 0 5 5 9 10 9 6 0 10 -7 10 -16z m1646
-72 c6 -12 21 -31 34 -42 21 -18 22 -23 10 -44 -13 -25 -53 -42 -70 -31 -6 4
-10 1 -10 -5 0 -6 -9 -20 -19 -31 -22 -24 -32 -14 -35 36 -1 26 4 36 20 44 17
7 22 18 22 45 0 59 25 74 48 28z m69 -30 c-7 -8 -35 19 -35 33 0 25 25 22 32
-4 4 -14 5 -27 3 -29z m815 42 c0 -8 -4 -12 -10 -9 -5 3 -10 10 -10 16 0 5 5
9 10 9 6 0 10 -7 10 -16z m-966 -27 c-3 -9 -10 -17 -15 -17 -11 0 -12 34 -2
44 11 11 24 -9 17 -27z m-1344 -1 c0 -3 -4 -8 -10 -11 -5 -3 -10 -1 -10 4 0 6
5 11 10 11 6 0 10 -2 10 -4z m724 -71 c-4 -8 -11 -12 -16 -9 -6 4 -5 10 3 15
19 12 19 11 13 -6z m-257 -45 c19 -15 21 -20 9 -20 -23 0 -20 -27 5 -40 11 -7
18 -18 15 -25 -2 -7 -1 -26 3 -42 5 -19 3 -35 -7 -51 -12 -18 -13 -26 -3 -31
14 -9 -23 -62 -42 -60 -8 0 -8 2 1 6 6 2 12 11 12 19 0 8 -6 14 -12 14 -7 0
-21 14 -30 30 -10 18 -25 30 -38 30 -13 0 -20 7 -20 20 0 21 8 24 49 20 14 -1
21 2 17 9 -4 6 -15 11 -25 11 -10 0 -21 9 -24 20 -4 16 0 20 23 20 16 0 30 -7
34 -15 3 -8 15 -15 27 -15 20 0 19 2 -10 32 -29 30 -30 33 -14 50 15 17 15 18
-6 18 -12 0 -19 4 -16 10 9 15 24 12 52 -10z m493 0 c0 -5 -7 -10 -16 -10 -8
0 -12 5 -9 10 3 6 10 10 16 10 5 0 9 -4 9 -10z m940 0 c0 -5 -4 -10 -10 -10
-5 0 -10 5 -10 10 0 6 5 10 10 10 6 0 10 -4 10 -10z m-675 -10 c-3 -5 -15 -10
-26 -10 -10 0 -19 5 -19 10 0 6 12 10 26 10 14 0 23 -4 19 -10z m835 -60 c0
-5 -4 -10 -10 -10 -5 0 -10 5 -10 10 0 6 5 10 10 10 6 0 10 -4 10 -10z m-1716
-39 c7 -10 -33 -23 -46 -15 -5 3 -6 10 -3 15 8 12 42 12 49 0z m206 -251 c0
-5 -4 -10 -10 -10 -5 0 -10 5 -10 10 0 6 5 10 10 10 6 0 10 -4 10 -10z m145
-31 c92 3 120 -1 140 -22 30 -31 77 -63 87 -59 5 1 19 -4 31 -13 12 -8 36 -15
54 -15 35 0 46 -23 17 -34 -24 -9 -82 -7 -89 3 -3 5 -36 24 -73 41 -37 18 -76
36 -87 41 -11 6 -29 10 -40 10 -68 1 -95 1 -137 1 -27 0 -48 3 -48 7 0 17 27
30 48 24 15 -3 24 0 28 12 5 12 13 15 28 10 11 -4 30 -7 41 -6z m-165 -37 c0
-13 -12 -22 -22 -16 -10 6 -1 24 13 24 5 0 9 -4 9 -8z m560 -83 c0 -5 -4 -9
-10 -9 -5 0 -10 7 -10 16 0 8 5 12 10 9 6 -3 10 -10 10 -16z m-404 -154 c79
-19 155 -35 169 -35 13 0 42 -6 62 -14 21 -8 76 -20 123 -26 46 -7 93 -16 103
-22 17 -9 17 -11 2 -28 -34 -37 -176 -75 -199 -53 -12 12 -48 14 -61 3 -9 -7
-16 -6 -25 5 -7 8 -29 15 -50 15 -21 0 -43 7 -50 15 -8 9 -21 13 -37 9 -15 -4
-30 0 -42 10 -13 12 -21 14 -26 6 -11 -18 -61 19 -76 56 -7 19 -19 34 -26 34
-7 0 -13 5 -13 10 0 6 -9 10 -20 10 -19 0 -27 20 -13 33 11 11 28 9 179 -28z
m-426 -15 c0 -5 -4 -10 -10 -10 -5 0 -10 5 -10 10 0 6 5 10 10 10 6 0 10 -4
10 -10z m125 -90 c-3 -5 -16 -10 -28 -10 -18 0 -19 2 -7 10 20 13 43 13 35 0z
m-206 -29 c9 -6 11 -16 7 -27 -7 -18 -8 -18 -22 0 -23 32 -16 46 15 27z m-119
-61 c0 -5 -4 -10 -10 -10 -5 0 -10 5 -10 10 0 6 5 10 10 10 6 0 10 -4 10 -10z
m1017 4 c-3 -3 -12 -4 -19 -1 -8 3 -5 6 6 6 11 1 17 -2 13 -5z m-456 -40 c11
-13 9 -14 -17 -8 -40 9 -54 24 -22 24 14 0 31 -7 39 -16z m154 -24 c-3 -5 -10
-10 -16 -10 -5 0 -9 5 -9 10 0 6 7 10 16 10 8 0 12 -4 9 -10z m112 -5 c3 -9 4
-18 1 -20 -7 -7 -88 17 -88 26 0 16 80 10 87 -6z m-657 -114 c0 -6 -4 -13 -10
-16 -5 -3 -10 1 -10 9 0 9 5 16 10 16 6 0 10 -4 10 -9z m-50 -61 c0 -5 -4 -10
-10 -10 -5 0 -10 5 -10 10 0 6 5 10 10 10 6 0 10 -4 10 -10z m54 -8 c11 -6
-23 -32 -42 -32 -12 0 -12 3 -2 15 6 8 9 19 5 24 -6 10 15 6 39 -7z m94 -59
c38 -5 40 -7 25 -19 -10 -7 -13 -14 -6 -14 6 0 15 -9 18 -20 7 -21 30 -27 40
-10 3 6 3 16 -1 22 -11 18 -12 48 -2 48 4 0 8 -4 8 -10 0 -5 12 -20 26 -34 21
-19 26 -31 22 -55 -2 -17 -1 -31 4 -31 4 0 8 -7 8 -15 0 -17 49 -65 67 -65 18
0 16 8 -7 37 -11 14 -20 36 -20 49 0 12 -4 26 -10 29 -19 11 -10 23 20 27 17
3 39 -2 50 -9 11 -8 25 -11 31 -8 13 9 -40 38 -56 31 -17 -6 -39 10 -31 22 5
9 44 9 66 2 3 -1 13 -1 24 0 11 1 15 -3 12 -9 -4 -6 0 -11 9 -11 9 0 34 -9 56
-19 50 -24 119 -37 119 -22 0 6 7 11 15 11 8 0 15 -9 15 -20 0 -11 7 -23 15
-27 23 -8 28 2 14 26 -22 35 -2 35 41 0 40 -32 41 -34 18 -39 -16 -4 -24 -14
-26 -34 -3 -20 0 -27 10 -24 7 3 13 11 13 18 0 7 6 15 14 18 10 3 13 -2 9 -21
-5 -24 -3 -26 26 -20 36 7 46 14 29 20 -7 3 -13 12 -13 21 0 14 2 14 9 3 5 -8
15 -12 22 -9 8 3 24 2 36 -3 21 -8 23 -16 14 -71 0 -5 -11 -8 -22 -8 -19 0
-20 2 -8 16 18 22 20 44 3 44 -15 0 -23 -14 -28 -44 -4 -27 -17 -31 -23 -8 -4
18 -12 22 -48 22 -24 0 -45 5 -47 10 -2 7 -15 7 -37 0 -30 -8 -38 -7 -57 11
l-21 20 -6 -20 c-6 -24 -47 -30 -47 -7 0 8 -9 13 -22 12 -13 -1 -34 2 -48 6
-14 4 -38 4 -55 -1 l-30 -9 34 -1 c33 -1 33 -2 17 -20 -20 -22 -11 -31 47 -52
40 -14 49 -29 17 -29 -11 0 -20 5 -20 10 0 7 -6 7 -19 0 -17 -8 -23 -5 -38 20
-19 33 -71 55 -106 46 -18 -4 -25 1 -36 24 -7 17 -18 30 -24 30 -8 0 -8 -3 0
-11 6 -6 10 -18 7 -25 -2 -8 -6 -21 -9 -30 -3 -8 -10 -12 -15 -9 -8 5 -8 11 0
20 8 10 6 15 -8 20 -17 5 -19 13 -16 48 4 35 3 38 -6 19 -5 -13 -15 -20 -21
-17 -8 5 -8 10 0 18 14 14 14 37 1 37 -5 0 -10 -7 -10 -15 0 -20 -16 -19 -24
1 -4 9 -9 14 -13 11 -3 -4 -15 -1 -26 5 -20 10 -20 11 -3 24 27 19 13 46 -21
42 -23 -2 -29 1 -31 21 -3 21 -1 23 20 17 12 -3 42 -9 66 -13z m412 -64 c0 -6
-4 -7 -10 -4 -5 3 -10 11 -10 16 0 6 5 7 10 4 6 -3 10 -11 10 -16z m390 -109
c0 -11 -39 -24 -47 -16 -3 3 -3 12 0 20 6 15 47 11 47 -4z m-473 -67 c-3 -3
-11 -2 -17 2 -9 6 -9 10 1 16 14 8 27 -7 16 -18z m183 7 c0 -13 -11 -13 -30 0
-12 8 -11 10 8 10 12 0 22 -4 22 -10z m1884 -67 c7 -26 4 -103 -4 -103 -13 0
-30 49 -19 56 8 4 7 10 0 17 -16 16 -14 47 3 47 8 0 17 -8 20 -17z m-37 -95
c-3 -8 -6 -5 -6 6 -1 11 2 17 5 13 3 -3 4 -12 1 -19z m52 -209 c-16 -10 -23
-4 -14 10 3 6 11 8 17 5 6 -4 5 -9 -3 -15z m138 -58 c18 -23 16 -49 -5 -60
-33 -17 -117 -28 -135 -17 -21 14 -33 1 -17 -19 11 -13 11 -19 -3 -32 -15 -15
-17 -14 -27 11 -14 37 -13 66 3 66 7 0 19 10 26 23 l14 22 11 -27 c9 -21 15
-25 26 -17 10 7 11 12 4 15 -8 3 -4 14 10 29 20 23 22 23 35 7 12 -15 12 -15
6 6 -6 22 -5 23 16 17 13 -5 29 -15 36 -24z m-127 -161 c0 -5 -7 -10 -15 -10
-8 0 -15 5 -15 10 0 6 7 10 15 10 8 0 15 -4 15 -10z m-14 -36 c-3 -9 -6 -18
-6 -21 0 -3 -7 0 -15 7 -13 11 -13 15 -3 21 21 13 31 10 24 -7z m-46 -9 c0 -8
-7 -15 -15 -15 -16 0 -20 12 -8 23 11 12 23 8 23 -8z"/>
<path d="M2070 5021 c0 -6 4 -13 10 -16 6 -3 7 1 4 9 -7 18 -14 21 -14 7z"/>
<path d="M2230 4870 c0 -5 5 -10 10 -10 6 0 10 5 10 10 0 6 -4 10 -10 10 -5 0
-10 -4 -10 -10z"/>
<path d="M2226 4833 c-6 -14 -5 -15 5 -6 7 7 10 15 7 18 -3 3 -9 -2 -12 -12z"/>
<path d="M2307 4734 c-2 -14 3 -30 13 -39 32 -29 42 13 11 44 -19 19 -19 19
-24 -5z"/>
<path d="M3817 4713 c-4 -6 2 -21 13 -33 14 -16 20 -19 20 -8 0 21 -26 53 -33
41z"/>
<path d="M3657 4673 c-13 -13 -7 -53 8 -53 8 0 15 8 15 18 0 22 -14 44 -23 35z"/>
<path d="M3888 4663 c7 -3 16 -2 19 1 4 3 -2 6 -13 5 -11 0 -14 -3 -6 -6z"/>
<path d="M3860 4646 c0 -9 5 -16 10 -16 6 0 10 4 10 9 0 6 -4 13 -10 16 -5 3
-10 -1 -10 -9z"/>
<path d="M3772 4620 c-25 -34 -27 -40 -9 -40 18 1 47 44 38 58 -5 8 -14 2 -29
-18z"/>
<path d="M2190 4611 c0 -9 -9 -12 -25 -9 -14 3 -28 2 -30 -2 -3 -4 11 -10 31
-12 38 -4 53 7 35 25 -8 8 -11 8 -11 -2z"/>
<path d="M2442 4604 c1 -9 9 -19 16 -22 9 -3 13 2 10 14 -1 9 -9 19 -16 22 -9
3 -13 -2 -10 -14z"/>
<path d="M3587 4575 c-8 -20 -4 -29 11 -24 5 2 6 13 2 23 -6 19 -7 19 -13 1z"/>
<path d="M2204 4507 c-8 -9 -7 -16 3 -26 16 -14 13 -33 -5 -39 -7 -2 -12 3
-12 12 0 17 -12 21 -24 9 -4 -4 3 -15 16 -25 l23 -18 -22 -19 c-27 -22 -29
-37 -8 -45 9 -3 15 0 15 9 0 8 8 19 19 24 22 12 33 58 25 101 -7 33 -13 36
-30 17z"/>
<path d="M3318 4443 c7 -3 16 -2 19 1 4 3 -2 6 -13 5 -11 0 -14 -3 -6 -6z"/>
<path d="M2177 4323 c-9 -2 -15 -9 -12 -14 9 -14 32 -11 39 6 6 15 4 16 -27 8z"/>
<path d="M2241 4311 c-10 -6 -10 -10 -1 -16 13 -8 24 -1 19 14 -3 6 -10 7 -18
2z"/>
<path d="M3306 4131 c-3 -5 1 -11 9 -15 9 -3 15 0 15 9 0 16 -16 20 -24 6z"/>
<path d="M2050 4100 c0 -5 9 -10 20 -10 11 0 20 5 20 10 0 6 -9 10 -20 10 -11
0 -20 -4 -20 -10z"/>
<path d="M2028 4053 c7 -3 16 -2 19 1 4 3 -2 6 -13 5 -11 0 -14 -3 -6 -6z"/>
<path d="M2317 4021 c3 -12 10 -21 15 -21 13 0 6 32 -9 37 -7 3 -9 -3 -6 -16z"/>
<path d="M3670 4020 c0 -6 7 -10 15 -10 8 0 15 2 15 4 0 2 -7 6 -15 10 -8 3
-15 1 -15 -4z"/>
<path d="M3645 3860 c3 -5 8 -10 11 -10 2 0 4 5 4 10 0 6 -5 10 -11 10 -5 0
-7 -4 -4 -10z"/>
<path d="M2450 2999 c0 -18 -2 -20 -16 -8 -14 11 -15 9 -12 -16 4 -34 27 -50
59 -42 33 9 55 24 46 33 -3 4 -13 1 -21 -6 -21 -17 -47 9 -39 39 3 12 1 21 -6
21 -6 0 -11 -10 -11 -21z"/>
<path d="M2491 3006 c-17 -20 5 -31 24 -12 8 8 15 17 15 20 0 12 -28 6 -39 -8z"/>
<path d="M2575 2850 c-4 -7 0 -19 9 -28 13 -14 16 -14 16 -2 0 25 -16 44 -25
30z"/>
<path d="M2552 2755 c-2 -32 14 -53 30 -37 9 9 9 12 -4 12 -9 0 -19 10 -21 23
-4 19 -4 19 -5 2z"/>
<path d="M3850 2812 c0 -5 11 -22 25 -38 24 -28 25 -28 39 -9 22 29 20 35 -14
35 -16 0 -30 5 -30 10 0 6 -4 10 -10 10 -5 0 -10 -4 -10 -8z"/>
<path d="M3980 2795 c0 -5 5 -17 10 -25 5 -8 10 -10 10 -5 0 6 -5 17 -10 25
-5 8 -10 11 -10 5z"/>
<path d="M3917 2720 c-3 -11 -1 -23 4 -26 5 -3 9 6 9 20 0 31 -6 34 -13 6z"/>
<path d="M3730 2660 c-13 -8 -12 -10 3 -10 9 0 17 5 17 10 0 12 -1 12 -20 0z"/>
<path d="M2170 1370 c0 -5 5 -10 10 -10 6 0 10 5 10 10 0 6 -4 10 -10 10 -5 0
-10 -4 -10 -10z"/>
<path d="M2446 1323 c-6 -14 -5 -15 5 -6 7 7 10 15 7 18 -3 3 -9 -2 -12 -12z"/>
<path d="M2581 1324 c0 -11 3 -14 6 -6 3 7 2 16 -1 19 -3 4 -6 -2 -5 -13z"/>
<path d="M1046 3333 c-4 -9 -2 -21 4 -27 7 -7 10 -5 10 7 0 9 5 17 11 17 5 0
7 5 4 10 -9 15 -22 12 -29 -7z"/>
<path d="M985 970 c-17 -34 -27 -103 -19 -132 8 -26 41 -22 48 5 9 33 7 130
-3 146 -7 11 -13 6 -26 -19z"/>
<path d="M866 972 c-8 -13 5 -82 15 -82 5 0 9 10 9 23 0 12 3 32 6 45 5 16 2
22 -9 22 -9 0 -18 -4 -21 -8z"/>
<path d="M5125 560 c4 -6 11 -8 16 -5 14 9 11 15 -7 15 -8 0 -12 -5 -9 -10z"/>
<path d="M5628 533 c7 -3 16 -2 19 1 4 3 -2 6 -13 5 -11 0 -14 -3 -6 -6z"/>
<path d="M5578 518 c-35 -12 -36 -34 -3 -41 17 -3 29 1 35 12 14 27 -1 39 -32
29z"/>
<path d="M970 510 c0 -5 7 -10 16 -10 8 0 12 5 9 10 -3 6 -10 10 -16 10 -5 0
-9 -4 -9 -10z"/>
<path d="M994 443 c7 -21 11 -44 8 -51 -2 -7 2 -21 10 -30 14 -17 32 -69 43
-127 6 -34 7 -37 22 -85 7 -19 17 -61 23 -93 l11 -57 150 0 c93 0 149 4 149
10 0 6 -6 11 -12 11 -7 1 -18 2 -24 3 -18 2 -122 142 -139 189 -4 8 -30 18
-61 23 -47 8 -58 14 -71 39 -9 17 -20 37 -25 45 -5 8 -16 32 -25 53 -9 20 -19
37 -23 37 -3 0 -12 16 -20 35 -18 47 -33 45 -16 -2z m176 -243 c12 -8 11 -10
-7 -10 -13 0 -23 5 -23 10 0 13 11 13 30 0z"/>
<path d="M1150 306 c0 -9 5 -16 10 -16 6 0 10 4 10 9 0 6 -4 13 -10 16 -5 3
-10 -1 -10 -9z"/>
<path d="M4637 156 c-4 -10 -5 -21 -2 -24 9 -9 17 6 13 25 -3 17 -4 17 -11 -1z"/>
<path d="M4065 10 c-4 -6 7 -10 24 -10 17 0 31 5 31 10 0 6 -11 10 -24 10 -14
0 -28 -4 -31 -10z"/>
</g>
</svg>
